<?xml version="1.0" encoding="UTF-8" standalone="no"?>
<svg
   xmlns:dc="http://purl.org/dc/elements/1.1/"
   xmlns:cc="http://creativecommons.org/ns#"
   xmlns:rdf="http://www.w3.org/1999/02/22-rdf-syntax-ns#"
   xmlns:svg="http://www.w3.org/2000/svg"
   xmlns="http://www.w3.org/2000/svg"
   xmlns:sodipodi="http://sodipodi.sourceforge.net/DTD/sodipodi-0.dtd"
   xmlns:inkscape="http://www.inkscape.org/namespaces/inkscape"
   inkscape:export-ydpi="100"
   inkscape:export-xdpi="100"
   inkscape:export-filename="C:\src\iMOD-Documentation\docs\screenshots\qgis\icons\3d-viewer.png"
   version="1.0"
   width="40"
   height="40"
   viewBox="0 0 30 30.000001"
   preserveAspectRatio="xMidYMid meet"
   id="svg6"
   sodipodi:docname="3d-viewer.svg"
   inkscape:version="1.0 (4035a4fb49, 2020-05-01)">
  <metadata
     id="metadata12">
    <rdf:RDF>
      <cc:Work
         rdf:about="">
        <dc:format>image/svg+xml</dc:format>
        <dc:type
           rdf:resource="http://purl.org/dc/dcmitype/StillImage" />
        <dc:title />
      </cc:Work>
    </rdf:RDF>
  </metadata>
  <defs
     id="defs10">
    <inkscape:perspective
       id="perspective2220"
       inkscape:persp3d-origin="1069.6684 : 984.60011 : 1"
       inkscape:vp_z="3053.1958 : 1531.0583 : 1"
       inkscape:vp_y="0 : 2699.1682 : 0"
       inkscape:vp_x="-1128.0212 : 1633.3625 : 1"
       sodipodi:type="inkscape:persp3d" />
  </defs>
  <sodipodi:namedview
     inkscape:document-rotation="0"
     pagecolor="#ffffff"
     bordercolor="#666666"
     borderopacity="1"
     objecttolerance="10"
     gridtolerance="10"
     guidetolerance="10"
     inkscape:pageopacity="0"
     inkscape:pageshadow="2"
     inkscape:window-width="1827"
     inkscape:window-height="1057"
     id="namedview8"
     showgrid="false"
     inkscape:zoom="10.24"
     inkscape:cx="19.207032"
     inkscape:cy="35.654395"
     inkscape:window-x="1912"
     inkscape:window-y="-8"
     inkscape:window-maximized="1"
     inkscape:current-layer="svg6"
     units="px" />
  <g
     id="g846"
     transform="matrix(1.039782,0,0,1.039782,-0.56556967,-0.410492)">
    <g
       style="fill:#080c80;fill-opacity:1"
       id="g4"
       stroke="none"
       fill="#000000"
       transform="matrix(0.00268122,0,0,-0.00268122,0.09248,29.775134)">
      <path
         sodipodi:nodetypes="ccccccccccsccc"
         style="fill:#080c80;fill-opacity:1"
         id="path2"
         d="m 955,10675 c -233,-42 -430,-231 -480,-460 -14,-63 -15,-556 -13,-4705 l 3,-4635 23,-65 c 77,-213 256,-367 469,-405 66,-12 802,-14 4643,-15 3114,0 4585,3 4629,11 141,22 245,76 348,179 71,72 131,180 158,285 13,52 15,592 15,4675 0,4083 -2,4623 -15,4675 -62,246 -256,424 -506,464 -102,17 -9182,13 -9274,-4 z" />
    </g>
    <path
       id="path2340"
       style="mix-blend-mode:normal;fill:#e9e9ff;fill-opacity:1;fill-rule:evenodd;stroke:none;stroke-width:0.134973;stroke-linejoin:round"
       d="M 15.009729,3.6883081 5.4247211,7.7575963 V 20.334014 l 9.5850079,-6.169792 z" />
    <path
       id="path2342"
       style="mix-blend-mode:normal;fill:#353564;fill-opacity:1;fill-rule:evenodd;stroke:none;stroke-width:0.134973;stroke-linejoin:round"
       d="M 25.467251,6.3280024 V 18.404921 L 15.009729,14.164222 V 3.6883081 Z" />
    <path
       id="path2344"
       style="mix-blend-mode:normal;fill:#afafde;fill-opacity:1;fill-rule:evenodd;stroke:none;stroke-width:0.134973;stroke-linejoin:round"
       d="M 25.467251,18.404921 16.561767,26.7537 5.4247211,20.334014 15.009729,14.164222 Z" />
    <path
       id="path2346"
       style="mix-blend-mode:normal;fill:#8d8dc0;fill-opacity:1;fill-rule:evenodd;stroke:none;stroke-width:0.134973;stroke-linejoin:round"
       d="M 25.467251,6.3280024 16.561767,11.796942 5.4247211,7.7575963 15.009729,3.6883081 Z" />
    <path
       id="path2348"
       style="mix-blend-mode:normal;fill:#f1f1ff;fill-opacity:1;fill-rule:evenodd;stroke:none;stroke-width:0.134973;stroke-linejoin:round"
       d="M 16.561767,11.796942 V 26.7537 L 5.4247211,20.334014 V 7.7575963 Z" />
    <path
       id="path2350"
       style="mix-blend-mode:normal;fill:#c4c4e0;fill-opacity:1;fill-rule:evenodd;stroke:none;stroke-width:0.134973;stroke-linejoin:round"
       d="M 25.467251,6.3280024 16.561767,11.796942 V 26.7537 l 8.905484,-8.348779 z" />
  </g>
</svg>
