<?xml version="1.0" encoding="UTF-8" standalone="no"?>
<svg
   xmlns:dc="http://purl.org/dc/elements/1.1/"
   xmlns:cc="http://creativecommons.org/ns#"
   xmlns:rdf="http://www.w3.org/1999/02/22-rdf-syntax-ns#"
   xmlns:svg="http://www.w3.org/2000/svg"
   xmlns="http://www.w3.org/2000/svg"
   xmlns:sodipodi="http://sodipodi.sourceforge.net/DTD/sodipodi-0.dtd"
   xmlns:inkscape="http://www.inkscape.org/namespaces/inkscape"
   inkscape:export-ydpi="2.5969343"
   inkscape:export-xdpi="2.5969343"
   inkscape:export-filename="C:\src\iMOD-Documentation\docs\screenshots\qgis\icons\NHI-portal.png"
   inkscape:version="1.0 (4035a4fb49, 2020-05-01)"
   sodipodi:docname="NHI-portal.svg"
   id="svg6"
   preserveAspectRatio="xMidYMid meet"
   viewBox="0 0 1107.000000 1109.000000"
   height="1109.000000pt"
   width="1107.000000pt"
   version="1.0">
  <metadata
     id="metadata12">
    <rdf:RDF>
      <cc:Work
         rdf:about="">
        <dc:format>image/svg+xml</dc:format>
        <dc:type
           rdf:resource="http://purl.org/dc/dcmitype/StillImage" />
        <dc:title />
      </cc:Work>
    </rdf:RDF>
  </metadata>
  <defs
     id="defs10" />
  <sodipodi:namedview
     inkscape:current-layer="svg6"
     inkscape:window-maximized="1"
     inkscape:window-y="-8"
     inkscape:window-x="1912"
     inkscape:cy="1207.7349"
     inkscape:cx="692.46704"
     inkscape:zoom="0.18434829"
     showgrid="false"
     id="namedview8"
     inkscape:window-height="1057"
     inkscape:window-width="1827"
     inkscape:pageshadow="2"
     inkscape:pageopacity="0"
     guidetolerance="10"
     gridtolerance="10"
     objecttolerance="10"
     borderopacity="1"
     bordercolor="#666666"
     pagecolor="#ffffff"
     inkscape:document-rotation="0" />
  <g
     style="fill:#080c80;fill-opacity:1"
     id="g4"
     stroke="none"
     fill="#000000"
     transform="translate(0.000000,1109.000000) scale(0.100000,-0.100000)">
    <path
       sodipodi:nodetypes="ccccccccccsccc"
       style="fill:#080c80;fill-opacity:1"
       id="path2"
       d="m 955,10675 c -233,-42 -430,-231 -480,-460 -14,-63 -15,-556 -13,-4705 l 3,-4635 23,-65 c 77,-213 256,-367 469,-405 66,-12 802,-14 4643,-15 3114,0 4585,3 4629,11 141,22 245,76 348,179 71,72 131,180 158,285 13,52 15,592 15,4675 0,4083 -2,4623 -15,4675 -62,246 -256,424 -506,464 -102,17 -9182,13 -9274,-4 z" />
  </g>
  <path
     style="fill:#ffffff;fill-opacity:1;stroke:#ffffff;stroke-width:28.1982;stroke-miterlimit:4;stroke-dasharray:none;stroke-opacity:1"
     d="m 920.193,417.25788 c -2.6071,0.50205 -8.31451,5.2634 -12.69401,10.58071 l -7.95139,9.66843 -0.57453,136.80447 -0.57453,136.80985 4.60171,9.18256 c 10.7319,21.39906 46.47249,18.5001 56.73272,-4.61017 6.42292,-14.4513 5.89715,-267.61136 -0.5853,-282.34341 -5.59899,-12.72389 -21.75109,-19.39622 -38.95467,-16.09244"
     id="path845" />
  <path
     style="fill:#ffffff;fill-opacity:1;stroke:#ffffff;stroke-width:28.1982;stroke-miterlimit:4;stroke-dasharray:none;stroke-opacity:1"
     d="m 537.36711,421.47958 c -14.90541,9.80339 -14.32547,3.53589 -14.32547,154.40304 v 135.88133 l 5.75081,9.74398 c 6.10308,10.33782 9.94056,12.2974 24.13053,12.34599 29.22549,0.0972 33.57248,-9.40929 33.57248,-73.36327 v -49.16262 l 5.10577,-4.11891 c 6.41745,-5.17699 128.67458,-5.32274 133.86709,-0.15677 2.04343,2.03519 3.01904,16.07082 3.80496,54.77685 0.91058,44.70895 1.59893,53.12497 4.90524,59.74335 9.91889,19.8443 46.53747,17.25306 55.42113,-3.9246 4.51499,-10.7589 4.69385,-272.99355 0.19515,-283.72002 -8.86738,-21.12907 -40.88966,-23.55292 -54.17447,-4.09734 -5.19794,7.61165 -5.30634,8.61574 -6.347,59.07394 -0.87807,42.52802 -1.60438,51.66741 -4.23314,53.31929 -5.26839,3.30918 -132.24646,2.65058 -135.03784,-0.70718 -1.42009,-1.70051 -2.83476,-21.68509 -3.69114,-52.13707 -1.53933,-54.65269 -2.48244,-58.93355 -14.68322,-66.80432 -12.00021,-7.73579 -23.60477,-8.10828 -34.26083,-1.09585"
     id="path843" />
  <path
     style="fill:#ffffff;fill-opacity:1;stroke:#ffffff;stroke-width:28.1982;stroke-miterlimit:4;stroke-dasharray:none;stroke-opacity:1"
     d="m 172.979,417.40923 c -23.21996,11.17456 -21.90287,1.41438 -21.33374,158.12247 0.58536,162.38716 -0.17896,158.34922 29.97888,158.34922 28.60219,0 34.18494,-10.82908 33.25268,-64.52622 -0.96479,-55.66219 0.21687,-119.40567 2.27104,-122.63386 3.52311,-5.54408 28.28782,22.2573 67.9363,76.2622 7.56111,10.3054 22.79177,30.27379 33.84344,44.37964 11.05172,14.10584 22.89475,29.86897 26.32027,35.02438 23.32839,35.13233 54.93333,43.53756 68.41328,18.19778 l 4.68845,-8.82089 -0.004,-136.35637 c -0.004,-151.06149 0.7751,-142.30539 -13.74549,-153.67967 -6.59636,-5.16622 -27.44768,-6.87208 -30.27161,-2.47246 -0.80761,1.24702 -3.69654,2.96373 -6.41747,3.81124 -11.94603,3.71945 -12.92708,11.23932 -12.98127,99.36167 -0.0543,97.29948 -1.04608,99.8421 -25.71326,65.83802 -11.55034,-15.92507 -52.06063,-69.4603 -61.44288,-81.2017 -3.85916,-4.8261 -10.34711,-13.69015 -14.41763,-19.69846 -4.07053,-6.00834 -11.44738,-15.5958 -16.39056,-21.31263 -4.94862,-5.71682 -8.99205,-11.41746 -8.99205,-12.66988 0,-14.51073 -42.21222,-42.12856 -54.99293,-35.97448"
     id="path841" />
  <path
     style="fill:#15aae4;fill-opacity:1;stroke:#15aae4;stroke-width:24.0643;stroke-miterlimit:4;stroke-dasharray:none;stroke-opacity:1"
     d="m 496.56629,931.46907 c -0.97444,0.97053 -2.4176,6.44969 -3.2317,12.28511 -0.80793,5.79241 -1.94581,12.42022 -2.53171,14.72675 -1.50175,5.94291 -1.33833,7.95458 0.81718,10.10141 2.9881,2.97606 543.00124,2.87164 548.06154,-0.1045 13.633,-8.02216 12.1467,-31.5819 -2.3158,-36.69862 -8.2705,-2.92694 -537.86998,-3.23099 -540.79951,-0.31021"
     id="path853" />
  <path
     style="fill:#15aae4;fill-opacity:1;stroke:#15aae4;stroke-width:24.0643;stroke-miterlimit:4;stroke-dasharray:none;stroke-opacity:1"
     d="m 101.63473,929.82901 c -18.977022,1.40359 -25.872163,6.9626 -25.872163,20.86316 0,9.99085 1.936561,13.47062 9.692039,17.41105 4.557693,2.31573 7.740065,2.3649 155.516754,2.3649 h 150.86348 l 2.46697,-2.69659 c 7.28369,-7.96995 11.78895,-36.10896 5.99468,-37.46645 -3.75593,-0.87839 -287.09173,-1.33296 -298.66176,-0.47607"
     id="path851" />
  <path
     style="fill:#15aae4;fill-opacity:1;stroke:#15aae4;stroke-width:24.0643;stroke-miterlimit:4;stroke-dasharray:none;stroke-opacity:1"
     d="m 482.55084,129.91042 c -1.63744,3.04362 -1.58501,15.81706 0.10503,26.72315 2.31278,14.91103 2.01674,14.54249 18.50524,22.80419 3.97182,1.9902 8.9458,4.89254 11.05196,6.44967 2.10615,1.55714 4.19072,2.82865 4.6317,2.82865 1.34141,0 25.66866,15.84471 49.90031,32.5033 4.30484,2.95456 12.69558,8.25863 18.65327,11.7814 5.95768,3.52275 13.53739,8.11736 16.84928,10.21197 11.72421,7.42327 46.78578,23.83308 71.60026,33.51066 25.755,10.04615 50.73906,16.47432 80.02489,20.58981 26.35633,3.70396 88.44337,2.59216 104.69752,-1.87039 1.98281,-0.5467 7.94051,-1.91648 13.23521,-3.04365 27.02548,-5.76477 64.89939,-18.69791 89.37158,-30.5223 4.14757,-2.00555 7.96825,-3.64561 8.48632,-3.64561 0.52114,0 3.09602,-1.57248 5.72025,-3.49203 2.62421,-1.92261 7.51495,-4.53321 10.86693,-5.80163 3.35198,-1.26844 12.54754,-6.25311 20.43561,-11.07195 7.8881,-4.82191 16.2356,-9.87107 18.5515,-11.22243 28.7863,-16.78757 35.78,-33.46459 18.7951,-44.81908 -9.6273,-6.43431 -19.5506,-4.91097 -33.2483,5.10445 -3.1485,2.30346 -6.0811,4.18615 -6.519,4.18615 -0.4379,0 -4.69953,2.5983 -9.46692,5.77399 -68.97912,45.93397 -148.51987,67.93349 -222.27254,61.46846 -13.42333,-1.1763 -21.00305,-2.43552 -44.52542,-7.39254 -10.94404,-2.30654 -43.31356,-12.99457 -52.76817,-17.42335 -4.86606,-2.27887 -12.17748,-5.54057 -16.24795,-7.24512 -13.08412,-5.48224 -28.70919,-13.70402 -42.90034,-22.57386 -7.61056,-4.7574 -17.08674,-10.65734 -21.05854,-13.11436 -3.97179,-2.45394 -9.65811,-6.2746 -12.63388,-8.49204 -2.97883,-2.2144 -5.81585,-4.0633 -6.30614,-4.1063 -0.48723,-0.043 -5.49824,-3.34154 -11.12906,-7.32805 -19.0418,-13.47983 -55.62672,-33.94371 -72.57469,-40.5961 -7.79251,-3.05898 -8.27665,-3.06818 -9.83082,-0.17506"
     id="path849" />
  <path
     style="fill:#15aae4;fill-opacity:1;stroke:#15aae4;stroke-width:24.0643;stroke-miterlimit:4;stroke-dasharray:none;stroke-opacity:1"
     d="m 301.39935,94.587646 c -9.2665,0.78013 -19.28543,2.03933 -22.26427,2.79795 -2.97885,0.75861 -10.28718,2.23897 -16.24487,3.286264 -13.43567,2.36487 -34.25366,8.53201 -59.56771,17.6414 -12.67705,4.5639 -58.07209,26.53579 -60.27075,29.17403 -0.76785,0.92444 -1.97356,1.67689 -2.67665,1.67689 -4.22467,0 -46.59458,26.69552 -53.064171,33.43389 -6.318488,6.57559 -6.142722,19.76979 0.366956,27.60459 6.673118,8.03446 22.221095,6.09034 36.578745,-4.57004 6.10573,-4.5332 15.00526,-9.97856 33.33473,-20.39941 4.96473,-2.81942 10.37971,-5.90604 12.03565,-6.85507 10.05283,-5.76786 43.59415,-20.62667 55.35537,-24.52719 5.62772,-1.86427 13.4788,-4.53014 17.45061,-5.92756 9.21407,-3.23713 17.0929,-5.27951 27.67613,-7.16836 4.63479,-0.82922 11.00879,-2.21745 14.16957,-3.08354 15.03299,-4.12779 67.14123,-4.61919 98.54556,-0.92753 7.83255,0.92138 8.66518,-0.97667 8.39072,-19.14018 -0.31762,-21.114994 0.0894,-20.767944 -27.09949,-23.074474 -22.6528,-1.91954 -39.36642,-1.90419 -62.71613,0.0584"
     id="path2-9" />
</svg>
