<?xml version="1.0" encoding="UTF-8" standalone="no"?>
<svg
   xmlns:dc="http://purl.org/dc/elements/1.1/"
   xmlns:cc="http://creativecommons.org/ns#"
   xmlns:rdf="http://www.w3.org/1999/02/22-rdf-syntax-ns#"
   xmlns:svg="http://www.w3.org/2000/svg"
   xmlns="http://www.w3.org/2000/svg"
   xmlns:sodipodi="http://sodipodi.sourceforge.net/DTD/sodipodi-0.dtd"
   xmlns:inkscape="http://www.inkscape.org/namespaces/inkscape"
   inkscape:export-ydpi="17.914656"
   inkscape:export-xdpi="17.914656"
   inkscape:export-filename="C:\Users\engelen\projects_wdir\iMOD6\logo\components\iMOD-python.png"
   inkscape:version="1.0 (4035a4fb49, 2020-05-01)"
   sodipodi:docname="iMOD-coupler-logo-new.svg"
   id="svg6"
   preserveAspectRatio="xMidYMid meet"
   viewBox="0 0 174.08958 37.842469"
   height="37.842468pt"
   width="174.08958pt"
   version="1.0">
  <path
     id="path34"
     transform="scale(0.75000001)"
     d="m 223.99219,22.171875 c -0.90696,0 -1.74958,0.790494 -2.60352,2.445313 -0.90696,1.760893 -1.68077,4.130477 -2.92187,8.957031 -1.082,4.221908 -1.47971,5.303887 -1.91992,5.240234 -0.33946,-0.04774 -0.78484,-1.457476 -1.45313,-4.576172 -0.10608,-0.498568 -0.24943,-1.177576 -0.31836,-1.511719 -1.28885,-6.025242 -2.70601,-8.985522 -4.82227,-10.078124 -0.66829,-0.350051 -0.91669,-0.332785 -1.27734,0.07031 -0.38188,0.419011 -0.69488,1.335432 -1.00781,2.953125 -0.0424,0.217459 -0.24432,1.390317 -0.45117,2.599609 -0.42432,2.535271 -0.61064,3.495498 -0.90235,4.720704 -0.92289,3.813511 -2.25417,6.073282 -4.04687,6.847656 -0.15912,0.06895 -0.29688,0.142296 -0.29688,0.158203 0,0.05304 0.54193,0.159606 0.96094,0.191406 0.46673,0.03713 1.12367,-0.07914 1.55859,-0.275391 0.96002,-0.424309 1.91539,-1.47475 2.63672,-2.912109 0.72134,-1.432056 1.28311,-3.194262 2.08399,-6.503906 0.33945,-1.394923 0.5786,-2.137454 0.76953,-2.349609 l 0.14844,-0.169922 0.17968,0.191406 c 0.33414,0.355367 0.55257,1.045055 1.50196,4.794922 0.22276,0.875142 0.45084,1.744605 0.5039,1.935547 0.0531,0.190942 0.17341,0.606154 0.26367,0.929687 0.18032,0.636471 0.58504,1.907722 0.74415,2.332031 0.65238,1.760899 1.11912,2.7476 1.73437,3.675782 0.32353,0.48796 0.83723,1.072265 0.94336,1.072265 0.0424,0 0.28698,-0.142769 0.54688,-0.3125 1.37901,-0.922876 2.62985,-2.827693 3.58984,-5.453125 0.10605,-0.286412 0.21304,-0.566666 0.23437,-0.625 0.053,-0.127294 0.65221,-2.058395 0.76368,-2.466797 0.1591,-0.556913 0.31176,-1.146337 0.67773,-2.599609 0.75316,-2.959581 0.99788,-3.692118 1.33203,-3.941406 0.1326,-0.09539 0.14247,-0.09462 0.32813,-0.0098 0.23866,0.111384 0.9133,0.827859 1.3164,1.384766 1.15096,1.612388 2.30591,3.855104 3.25,6.332031 1.93591,5.081147 2.55116,10.237054 1.73438,14.496094 -0.0529,0.281108 -0.0837,0.513672 -0.0625,0.513672 0.0796,0 0.84282,-0.847514 1.03906,-1.144532 0.87516,-1.368405 1.28959,-3.2897 1.29492,-6 0,-3.840028 -0.83769,-8.251518 -2.40234,-12.611328 -1.68134,-4.67805 -3.48001,-7.612437 -5.02344,-8.201172 -0.16443,-0.06363 -0.40419,-0.09961 -0.62695,-0.09961 z"
     style="fill:#ffffff;fill-opacity:1;fill-rule:evenodd;stroke-width:0.115404" />
  <path
     sodipodi:nodetypes="ccccccccccccccc"
     id="path32"
     transform="scale(0.75000001)"
     d="m 201.86095,16.106612 c -0.0513,0.967635 -0.74777,1.71102 -1.56031,3.147294 -1.25703,2.254164 -1.73494,3.178265 -2.28125,4.376953 -1.31007,2.885323 -2.04702,5.261196 -2.32812,7.494141 -0.11147,0.848625 -0.112,2.344791 -0.006,3.082031 0.32885,2.254164 1.38972,3.970918 3.24609,5.259766 0.36591,0.249285 0.39829,0.265117 0.37695,0.148437 -0.47204,-2.132176 -0.59375,-3.1707 -0.59375,-5.005859 -0.005,-1.898796 0.12787,-2.953985 0.58399,-4.640625 0.52509,-1.930624 1.00661,-3.040003 3.49414,-8.009766 1.70572,-2.891983 1.73532,-3.035507 2.14097,-4.156941 0.35836,-0.944447 0.71615,-1.905894 0.8825,-2.958335 -0.13654,-0.210566 -3.02029,-1.310829 -4.01046,-1.865236 0.0619,0.962373 0.0743,1.905333 0.0553,3.12814 z"
     style="fill:#ffffff;fill-opacity:1;fill-rule:evenodd;stroke-width:0.115404" />
  <path
     sodipodi:nodetypes="ccccccccccc"
     id="rect24"
     d="m 155.05412,0.07458849 c -0.58144,-0.26285957 -1.12182,1.04828631 -1.72759,2.51942751 -0.31187,-0.1139402 -0.76398,-0.2687754 -1.10515,-0.3967226 -0.24996,1.0036524 -1.77273,4.3579011 -0.69648,5.9413475 0.53734,0.291856 3.2419,1.543335 3.8447,1.840933 1.75619,-0.618644 2.81075,-3.8210009 3.21789,-5.3896251 -0.0492,-0.058283 -0.25626,-0.1223452 -1.11435,-0.4830956 0.65105,-2.1271717 0.98285,-2.8727169 0.3198,-3.11257673 -0.64331,-0.29366651 -1.25999,2.25891753 -1.42391,2.71896753 -0.26636,-0.1154709 -1.4327,-0.5391279 -1.71785,-0.6603483 0.54547,-1.4404262 1.01801,-2.77632206 0.40294,-2.97830721 z"
     style="fill:#ffffff;fill-opacity:1;fill-rule:evenodd;stroke-width:0.130269" />
  <metadata
     id="metadata12">
    <rdf:RDF>
      <cc:Work
         rdf:about="">
        <dc:format>image/svg+xml</dc:format>
        <dc:type
           rdf:resource="http://purl.org/dc/dcmitype/StillImage" />
        <dc:title></dc:title>
      </cc:Work>
    </rdf:RDF>
  </metadata>
  <defs
     id="defs10" />
  <sodipodi:namedview
     fit-margin-bottom="0"
     fit-margin-right="0"
     fit-margin-left="0"
     fit-margin-top="0"
     inkscape:pagecheckerboard="true"
     inkscape:current-layer="svg6"
     inkscape:window-maximized="1"
     inkscape:window-y="2"
     inkscape:window-x="3832"
     inkscape:cy="2.9575871"
     inkscape:cx="216.0427"
     inkscape:zoom="16"
     showgrid="false"
     id="namedview8"
     inkscape:window-height="1057"
     inkscape:window-width="1858"
     inkscape:pageshadow="2"
     inkscape:pageopacity="0"
     guidetolerance="10"
     gridtolerance="10"
     objecttolerance="10"
     borderopacity="1"
     bordercolor="#666666"
     pagecolor="#ffffff"
     inkscape:document-rotation="0" />
  <flowRoot
     transform="matrix(0.75000001,0,0,0.75000001,-431.5128,-525.53925)"
     style="font-style:normal;font-weight:normal;font-size:53.33333206px;line-height:1.25;font-family:sans-serif;letter-spacing:0px;word-spacing:0px;fill:#000000;fill-opacity:1;stroke:none"
     id="flowRoot4536"
     xml:space="preserve"><flowRegion
       style="font-size:53.33333206px"
       id="flowRegion4538"><rect
         style="font-size:53.33333206px"
         y="678.66669"
         x="820.3125"
         height="110.9375"
         width="479.6875"
         id="rect4540" /></flowRegion><flowPara
       id="flowPara4542" /></flowRoot>
  <flowRoot
     transform="matrix(0.75000001,0,0,0.75000001,-14.314373,6.3070776)"
     style="font-style:normal;font-weight:normal;font-size:29.33333397px;line-height:1.25;font-family:sans-serif;letter-spacing:0px;word-spacing:0px;fill:#000000;fill-opacity:1;stroke:none"
     id="flowRoot6053"
     xml:space="preserve"><flowRegion
       id="flowRegion6055"><rect
         y="-19.39526"
         x="-5.6623783"
         height="80.101944"
         width="198.32135"
         id="rect6057" /></flowRegion><flowPara
       id="flowPara6059" /></flowRoot>
  <text
     id="text7576"
     y="25.827177"
     x="-1.5610778"
     style="font-style:normal;font-variant:normal;font-weight:normal;font-stretch:normal;font-size:20px;line-height:1.25;font-family:'Segoe UI';-inkscape-font-specification:'Segoe UI';letter-spacing:0px;word-spacing:0px;fill:#ffffff;fill-opacity:1;stroke:none;stroke-width:0.75"
     xml:space="preserve"><tspan
       style="font-style:normal;font-variant:normal;font-weight:normal;font-stretch:normal;font-size:20px;font-family:'Segoe UI';-inkscape-font-specification:'Segoe UI';fill:#ffffff;fill-opacity:1;stroke-width:0.75"
       y="25.827177"
       x="-1.5610778"
       id="tspan7574"
       sodipodi:role="line">iMOD Coupler</tspan></text>
</svg>
